<svg xmlns="http://www.w3.org/2000/svg" xmlns:xlink="http://www.w3.org/1999/xlink">

    <symbol id="search" viewBox="0 0 100 100">
        <path d="M90,87.2L75.4,72.6c6-6.6,9.6-15.4,9.6-25.1C85,26.8,68.2,10,47.5,10S10,26.8,10,47.5S26.8,85,47.5,85
        c9.6,0,18.4-3.6,25.1-9.6L87.2,90L90,87.2z M47.5,81C29,81,14,66,14,47.5C14,29,29,14,47.5,14S81,29,81,47.5C81,66,66,81,47.5,81z"/>
    </symbol>

    <symbol id="hamburger" viewBox="0 0 100 100">
        <path d="M100,47H0v6h100V47z M100,14H0v6h100V14z M100,80H0v6h100V80z"/>
    </symbol>

    <symbol id="close" viewBox="0 0 100 100">
        <path d="M0.7,5l45,45l-45,45L5,99.3l45-45l45,45l4.2-4.2l-45-45l45-45L95,0.7l-45,45L5,0.7L0.7,5z"/>
    </symbol>

    <symbol id="plus" viewBox="0 0 100 100">
        <path d="M100,47H53V0h-6v47H0v6h47v47h6V53h47V47z"/>
    </symbol>

    <symbol id="minus" viewBox="0 0 100 100">
        <path d="M100,47H0v6h100V47z"/>
    </symbol>

    <symbol id="right" viewBox="0 0 100 100">
        <path d="M27.2,100.1L23,95.9l45.6-45.8l-45.8-46L27-0.1l50.2,50.2L27.2,100.1z"/>
    </symbol>

    <symbol id="left" viewBox="0 0 100 100">
        <path d="M72.8-0.1L77,4.1L31.4,49.9l45.8,46l-4.2,4.2L22.8,49.9L72.8-0.1z"/>
    </symbol>

    <symbol id="up" viewBox="0 0 100 100">
        <path d="M100.1,72.8L95.9,77L50.1,31.4l-46,45.8L-0.1,73l50.2-50.2L100.1,72.8z"/>
    </symbol>

    <symbol id="down" viewBox="0 0 100 100">
        <path d="M-0.1,27.2L4.1,23l45.8,45.6l46-45.8l4.2,4.2L49.9,77.2L-0.1,27.2z"/>
    </symbol>

    <symbol id="share" viewBox="0 0 100 100">
        <path d="M79.4,58.8c-7.4,0-13.9,3.9-17.5,9.8L39.9,58c0.9-2.2,1.4-4.7,1.4-7.4c0-2.5-0.5-4.9-1.2-7.1l22.1-11.7
		c3.5,5.7,10,9.5,17.2,9.5c11.4,0,20.6-9.3,20.6-20.6S90.8,0,79.4,0S58.8,9.2,58.8,20.6c0,2.2,0.4,4.5,1.1,6.6L37.8,39
		c-3.8-5.5-10-9-17-9C9.2,30,0,39.2,0,50.6s9.2,20.6,20.6,20.6c7,0,13.1-3.5,16.9-8.9L59.8,73c-0.6,2-1,4.1-1,6.2
		c0,11.5,9.2,20.8,20.6,20.8S100,90.8,100,79.4S90.8,58.8,79.4,58.8z M63.8,20.6C63.8,12,70.8,5,79.4,5S95,12,95,20.6
		s-7,15.6-15.6,15.6c-5.4,0-10.1-2.8-12.9-6.9c-0.9-1.4-1.6-2.9-2.1-4.5C64,23.5,63.8,22.1,63.8,20.6z M20.6,66.2
		C12,66.2,5,59.2,5,50.6S12,35,20.6,35c5.1,0,9.8,2.5,12.6,6.4c1,1.4,1.8,2.9,2.2,4.5c0.5,1.5,0.8,3.1,0.8,4.8
		c0,1.9-0.4,3.6-0.9,5.2C34.7,57.5,34,59,33,60.2C30.1,63.9,25.6,66.2,20.6,66.2z M79.4,95c-8.6,0-15.6-7-15.6-15.6
		c0-1.4,0.2-2.8,0.6-4.1c0.5-1.6,1.1-3.1,2.1-4.5c2.8-4.2,7.6-7,13-7c8.5,0,15.5,7,15.5,15.6S88,95,79.4,95z"/>
    </symbol>

    <symbol id="twitter" viewBox="0 0 100 100">
        <path d="M100,18.9c-3.6,1.6-7.6,2.8-11.8,3.3c4.3-2.5,7.5-6.5,9-11.4c-4,2.4-8.4,4-13,5c-3.8-4-9.1-6.5-15-6.5
		c-11.4,0-20.5,9.1-20.5,20.5c0,1.6,0.1,3.1,0.5,4.6c-17-0.8-32.2-9-42.3-21.4c-1.8,3-2.8,6.5-2.8,10.4c0,7.1,3.6,13.4,9.1,17.1
		c-3.4-0.1-6.5-1-9.3-2.6C4,38,4,38,4,38.2c0,10,7.1,18.3,16.5,20.2c-1.8,0.5-3.5,0.8-5.4,0.8c-1.4,0-2.6-0.1-3.9-0.4
		c2.6,8.1,10.1,14.1,19.1,14.3c-7,5.5-15.9,8.8-25.5,8.8c-1.6,0-3.3-0.1-4.9-0.3c9.1,5.9,19.9,9.3,31.5,9.3
		C69.3,90.7,90,59.4,90,32.3c0-0.9,0-1.8,0-2.6C93.7,26.7,97.2,23,100,18.9z"/>
    </symbol>

    <symbol id="facebook" viewBox="0 0 100 100">
        <path d="M50,0C22.4,0,0,22.5,0,50.3C0,75.5,18.2,96.2,42.1,100V64.9H29.5V50.3h12.8V39.2c0-12.6,7.5-19.6,18.9-19.6
	c5.5,0,11.2,1,11.2,1V33h-6.2c-6.2,0-8.1,3.9-8.1,7.8v9.6h13.9l-2.2,14.6H58V100c23.8-3.8,42-24.5,42-49.7C100,22.5,77.6,0,50,0z"/>
    </symbol>

    <symbol id="linkedin" viewBox="0 0 100 100">
        <path d="M92.6,0H7.4C3.2,0,0,3.3,0,7.4v85.2c0,4.1,3.3,7.4,7.4,7.4h85.2c4.1,0,7.4-3.2,7.4-7.4V7.4C100,3.3,96.8,0,92.6,0z
	 M29.8,85.2h-15V37.4h15V85.2z M22.2,30.9c-4.8,0-8.6-3.6-8.6-8.6s3.9-8.6,8.6-8.6s8.6,3.6,8.6,8.6S27.1,30.9,22.2,30.9z M85.2,85.2
	h-15V59.1c0-7.8-3.2-10.1-7.5-10.1c-4.5,0-8.9,3.4-8.9,10.2v25.9h-15V37.5h14.5v6.6h0.2c1.5-3,6.5-8,14.2-8c8.4,0,17.5,5,17.5,19.5
	v29.6H85.2z"/>
    </symbol>

    <symbol id="video" viewBox="0 0 100 100">
        <path d="M97.9,25.8c-1.1-4.4-4.5-7.8-8.9-8.9c-7.8-2.1-39-2.1-39-2.1s-31.2,0-39.1,2.1C6.6,18,3.1,21.5,2,25.8C0,33.6,0,50,0,50
	s0,16.4,2.1,24.3c1.1,4.4,4.5,7.7,8.9,8.9c7.8,2.1,39,2.1,39,2.1s31.2,0,39.1-2.1c4.3-1.1,7.8-4.6,8.9-8.9c2-7.9,2-24.3,2-24.3
	S100,33.6,97.9,25.8z M39.8,64.9V35.1L65.9,50L39.8,64.9z"/>
    </symbol>

</svg>
