<svg xmlns="http://www.w3.org/2000/svg" xmlns:xlink="http://www.w3.org/1999/xlink">
	<symbol id="chevron-down" viewBox="0 0 1024 1024">
        <path d="M873.11 232.402c30.17-36.206 83.978-41.095 120.184-10.924s41.095 83.978 10.924 120.184l-426.664 449.936c-34.113 40.939-96.993 40.939-131.109 0l-426.664-449.936c-30.17-36.206-25.279-90.012 10.924-120.184s90.012-25.279 120.184 10.924l361.109 371.272 361.109-371.272z" />
    </symbol>

    <symbol id="chevron-left" viewBox="0 0 1024 1024">
        <path d="M791.596 150.89c36.205-30.171 41.096-83.978 10.925-120.183s-83.978-41.096-120.183-10.925l-449.937 426.665c-40.938 34.115-40.938 96.994 0 131.109l449.937 426.665c36.205 30.171 90.013 25.28 120.183-10.925s25.28-90.013-10.925-120.183l-371.273-361.11 371.273-361.11z" />
    </symbol>

    <symbol id="chevron-right" viewBox="0 0 1024 1024">
        <path d="M232.404 150.89c-36.205-30.171-41.096-83.978-10.925-120.183s83.978-41.096 120.183-10.925l449.937 426.665c40.938 34.115 40.938 96.994 0 131.109l-449.937 426.665c-36.205 30.171-90.013 25.28-120.183-10.925s-25.28-90.013 10.925-120.183l371.273-361.11-371.273-361.11z" />
    </symbol>

    <symbol id="chevron-up" viewBox="0 0 1024 1024">
        <path d="M873.11 791.596c30.171 36.205 83.978 41.096 120.183 10.925s41.096-83.978 10.925-120.183l-426.665-449.937c-34.115-40.938-96.994-40.938-131.109 0l-426.665 449.937c-30.171 36.205-25.28 90.013 10.925 120.183s90.013 25.28 120.183-10.925l361.11-371.273 361.11 371.273z" />
    </symbol>

    <symbol id="close" viewBox="0 0 100 100">
        <path d="M0.7,5l45,45l-45,45L5,99.3l45-45l45,45l4.2-4.2l-45-45l45-45L95,0.7l-45,45L5,0.7L0.7,5z"/>
    </symbol>

	<symbol id="hamburger" viewBox="0 0 100 100">
        <path d="M100,47H0v6h100V47z M100,14H0v6h100V14z M100,80H0v6h100V80z"/>
    </symbol>
</svg>
